HIERARCHY
ROOT root
{
	OFFSET	0	13.1	24.9
	CHANNELS 6  Xposition Yposition Zposition Xrotation Yrotation Zrotation
	JOINT spine_1
	{
		OFFSET	0	9.99999	0
		CHANNELS 3  Xrotation Yrotation Zrotation
		JOINT spine_2
		{
			OFFSET	0	112	-10
			CHANNELS 3  Xrotation Yrotation Zrotation
			JOINT spine_3
			{
				OFFSET	0	206.5	19.3
				CHANNELS 3  Xrotation Yrotation Zrotation
				JOINT spine_4
				{
					OFFSET	0	110.4	14.6
					CHANNELS 3  Xrotation Yrotation Zrotation
					JOINT neck_1
					{
						OFFSET	0	71.8	-50.3
						CHANNELS 3  Xrotation Yrotation Zrotation
						JOINT neck_2
						{
							OFFSET	0	86.2	-25.8
							CHANNELS 3  Xrotation Yrotation Zrotation
							JOINT head_ee
							{
								OFFSET	0	179.8	-8.7
								CHANNELS 3  Xrotation Yrotation Zrotation
								End Site
								{
									OFFSET	1	0	0
								}
							}
						}
					}
					JOINT left_clavicle
					{
						OFFSET	-43.2	22.4	-70.8
						CHANNELS 3  Xrotation Yrotation Zrotation
						JOINT left_shoulder
						{
							OFFSET	-93.9	-5.79999	48.7
							CHANNELS 3  Xrotation Yrotation Zrotation
							JOINT left_elbow
							{
								OFFSET	-291.4	-30.8	15.2
								CHANNELS 3  Xrotation Yrotation Zrotation
								JOINT left_lowarm_twist
								{
									OFFSET	-110.7	-3.89999	13.6
									CHANNELS 3  Xrotation Yrotation Zrotation
									JOINT left_hand
									{
										OFFSET	-110.7	-3.89999	13.6
										CHANNELS 3  Xrotation Yrotation Zrotation
										JOINT left_ee
										{
											OFFSET	-80.8	-5.10001	12.1
											CHANNELS 3  Xrotation Yrotation Zrotation
											End Site
											{
												OFFSET	1	0	0
											}
										}
									}
								}
							}
						}
					}
					JOINT right_clavicle
					{
						OFFSET	43.2	22.4	-70.8
						CHANNELS 3  Xrotation Yrotation Zrotation
						JOINT right_shoulder
						{
							OFFSET	93.9	-5.79999	48.7
							CHANNELS 3  Xrotation Yrotation Zrotation
							JOINT right_elbow
							{
								OFFSET	291.4	-30.8	15.2
								CHANNELS 3  Xrotation Yrotation Zrotation
								JOINT right_lowarm_twist
								{
									OFFSET	110.7	-3.89999	13.6
									CHANNELS 3  Xrotation Yrotation Zrotation
									JOINT right_hand
									{
										OFFSET	110.7	-3.89999	13.6
										CHANNELS 3  Xrotation Yrotation Zrotation
										JOINT right_ee
										{
											OFFSET	80.8	-5.10001	12.1
											CHANNELS 3  Xrotation Yrotation Zrotation
											End Site
											{
												OFFSET	1	0	0
											}
										}
									}
								}
							}
						}
					}
				}
			}
		}
	}
	JOINT left_hip
	{
		OFFSET	-82.8	-127.5	0.300001
		CHANNELS 3  Xrotation Yrotation Zrotation
		JOINT left_knee
		{
			OFFSET	-28.2	-396.7	2.2
			CHANNELS 3  Xrotation Yrotation Zrotation
			JOINT left_ankle
			{
				OFFSET	-11.7	-411.3	35.4
				CHANNELS 3  Xrotation Yrotation Zrotation
				JOINT left_toes
				{
					OFFSET	0	-60	-88.6
					CHANNELS 3  Xrotation Yrotation Zrotation
					JOINT left_foot_ee
					{
						OFFSET	-22.5	-16.5	-42.2
						CHANNELS 3  Xrotation Yrotation Zrotation
						End Site
						{
							OFFSET	1	0	0
						}
					}
				}
			}
		}
	}
	JOINT right_hip
	{
		OFFSET	82.8	-127.5	0.300001
		CHANNELS 3  Xrotation Yrotation Zrotation
		JOINT right_knee
		{
			OFFSET	28.2	-396.7	2.2
			CHANNELS 3  Xrotation Yrotation Zrotation
			JOINT right_ankle
			{
				OFFSET	11.7	-411.3	35.4
				CHANNELS 3  Xrotation Yrotation Zrotation
				JOINT right_toes
				{
					OFFSET	0	-60	-88.6
					CHANNELS 3  Xrotation Yrotation Zrotation
					JOINT right_foot_ee
					{
						OFFSET	22.5	-16.5	-42.2
						CHANNELS 3  Xrotation Yrotation Zrotation
						End Site
						{
							OFFSET	1	0	0
						}
					}
				}
			}
		}
	}
}
MOTION
Frames: 8
Frame Time: 0.02
3469.77 760.933 -539.725 -55.5582 87.2467 54.4129 -2.44928 -0.179568 0.03871 -2.4493 -0.181668 0.0272051 -2.44941 -0.182665 -0.0194092 -2.44936 -0.183438 0.00968303 -6.28638 3.01028 3.94404 -6.2451 2.6789 4.54419 -0.0 0.0 -0.0 8.82853 -25.8256 16.2741 -4.00995 16.6944 66.9575 0.993907 -26.2129 0.231413 10.2587 0.246938 -1.28545 3.25592 -4.29255 20.5498 -0.0 0.0 -0.0 8.67929 -9.69506 -16.4404 -6.14447 11.4232 -57.831 0.704788 19.2457 -0.119497 1.57879 -0.0529456 0.194687 3.54947 3.61496 -22.9699 0.0 0.0 0.0 7.28456 3.19284 1.71009 -14.6426 0.320975 2.21806 16.9527 -5.66648 -2.40801 -13.3163 0.0 0.0 -0.0 0.0 -0.0 -3.74097 5.82314 -2.00535 2.13294 0.0936922 0.313865 -20.6291 -28.5201 -3.29729 -37.0221 0.0 0.0 0.0 0.0 0.0 
3466.31 761.485 -535.539 -35.8984 85.9505 34.5329 -2.47203 -0.10005 0.201838 -2.47202 -0.112691 0.195063 -2.47241 -0.158236 0.160344 -2.47242 -0.130927 0.183322 -5.30073 3.04328 3.45586 -5.26907 3.01962 4.04885 -0.0 0.0 -0.0 8.77843 -27.6874 15.9618 -4.96631 16.4855 67.5289 0.967339 -25.6029 0.219805 12.468 0.269764 -1.5667 3.41097 -5.03327 21.3487 -0.0 0.0 -0.0 8.50939 -9.76868 -16.1234 -5.96173 12.3821 -57.4305 0.790641 21.3882 -0.149311 1.27474 -0.0431667 0.157083 2.83908 2.3216 -18.4015 0.0 0.0 0.0 7.22036 4.02771 2.22494 -14.3923 0.32028 2.17966 15.7337 -5.49235 -2.24558 -12.5055 0.0 0.0 -0.0 0.0 -0.0 -4.17422 8.06008 -0.975179 2.30245 0.10164 0.338659 -19.1587 -26.1704 -3.01837 -38.795 0.0 0.0 0.0 0.0 0.0 
3466.5 763.176 -533.182 -36.0314 85.8181 34.7905 -2.48149 -0.232873 0.294835 -2.48147 -0.251162 0.27942 -2.48275 -0.313543 0.206999 -2.4827 -0.276916 0.25392 -5.57153 2.30975 2.64643 -5.553 2.29094 3.09931 -0.0 0.0 -0.0 8.55522 -28.0307 15.4297 -5.17677 16.4078 67.4397 0.995313 -26.245 0.232034 13.4987 0.276699 -1.69817 3.43801 -5.45682 21.3592 -0.0 0.0 -0.0 8.32488 -9.44471 -15.809 -5.59911 13.3423 -57.5172 0.77982 21.1215 -0.145389 0.73893 -0.0254489 0.0909415 3.1404 0.704633 -21.2135 0.0 0.0 0.0 6.97529 3.62466 2.46142 -12.5539 0.310036 1.89779 14.2003 -6.41444 -2.04814 -12.4243 0.0 0.0 -0.0 0.0 -0.0 -3.92507 6.64793 -1.2942 2.60267 0.115895 0.382515 -16.2434 -26.8456 -2.56435 -39.9842 0.0 0.0 0.0 0.0 0.0 
3465.98 761.745 -537.675 -25.1368 84.4258 24.0919 -2.16657 -0.148571 0.277188 -2.16654 -0.165908 0.267172 -2.16733 -0.22676 0.217913 -2.16734 -0.189499 0.250991 -2.95578 4.16497 5.8912 -2.86402 2.96313 6.72865 -0.0 0.0 -0.0 8.84059 -27.778 16.089 -5.91336 14.6984 66.1075 0.917451 -24.4404 0.198703 14.6254 0.281573 -1.84199 3.27627 -7.41034 19.3302 -0.0 0.0 -0.0 8.44316 -9.76363 -16.0026 -5.77234 14.4552 -58.1347 0.794835 21.4913 -0.150844 -1.62594 0.060119 -0.198922 2.68196 -1.67825 -18.8928 0.0 0.0 0.0 6.72694 4.49838 2.31439 -13.3175 0.315389 2.01482 17.3573 -4.78288 -2.45248 -12.6096 0.0 0.0 -0.0 0.0 -0.0 -3.75574 5.06589 -1.92668 3.46386 0.158062 0.507902 -17.6639 -29.2949 -2.83344 -40.1834 0.0 0.0 0.0 0.0 0.0 
3464.38 760.018 -533.505 -18.7663 81.4255 17.1685 -2.13886 0.141946 0.70281 -2.1386 0.0969375 0.710418 -2.13707 -0.0811641 0.712392 -2.13778 0.0323606 0.71627 -3.32738 3.78999 3.52957 -3.29259 4.16379 4.22307 -0.0 0.0 -0.0 8.7803 -27.4163 15.9962 -6.59767 15.7034 65.8166 0.938361 -24.9303 0.207436 16.1335 0.28367 -2.0346 2.49803 -6.69488 14.1603 -0.0 0.0 -0.0 8.28211 -8.61066 -15.7859 -6.40249 16.0428 -58.9219 0.90749 24.2057 -0.1946 -0.547432 0.0196097 -0.067161 2.71724 -1.37127 -19.0221 0.0 0.0 0.0 6.37582 6.04433 2.78195 -14.4032 0.320314 2.18133 19.2235 -6.01155 -2.70522 -11.9038 0.0 0.0 -0.0 0.0 -0.0 -3.52509 4.10461 -1.44769 4.52396 0.212555 0.661376 -20.6079 -29.2472 -3.30929 -39.714 0.0 0.0 0.0 0.0 0.0 
3458.19 758.054 -533.721 -15.0514 80.179 13.251 -2.13843 0.15327 1.01584 -2.13786 0.0883218 1.02354 -2.13565 -0.16668 1.01373 -2.13709 -0.0044971 1.02733 -3.05095 3.36081 2.43699 -3.03188 4.21064 3.02219 -0.0 0.0 -0.0 8.11179 -27.3908 14.5231 -7.44141 14.1755 65.7299 0.966514 -25.5838 0.219448 15.5186 0.283427 -1.95606 2.81981 -6.92542 16.3102 -0.0 0.0 -0.0 8.30499 -8.56806 -15.8309 -7.12015 16.4513 -59.4765 0.948562 25.1679 -0.211755 -1.06741 0.0388305 -0.130781 2.47521 -2.24966 -17.6635 0.0 0.0 0.0 6.09224 6.91156 2.92062 -15.21 0.321929 2.3051 20.0247 -5.28102 -2.79881 -10.8955 0.0 0.0 -0.0 0.0 -0.0 -4.48888 5.85304 -1.23101 4.97673 0.236696 0.726619 -19.068 -29.373 -3.06257 -38.755 0.0 0.0 0.0 0.0 0.0 
3451.15 755.655 -533.772 -12.7363 80.0377 10.9278 -1.9852 0.257961 1.14396 -1.98449 0.18465 1.15805 -1.97992 -0.10329 1.16812 -1.98182 0.0824763 1.16978 -2.85473 3.2935 1.57894 -2.84163 4.74564 2.11552 -0.0 0.0 -0.0 8.07459 -28.0343 14.3697 -8.29535 13.5864 65.4201 0.965447 -25.5592 0.218988 16.0927 0.28368 -2.02938 2.66612 -7.83185 14.8371 -0.0 0.0 -0.0 8.37999 -8.41039 -15.9802 -8.70283 16.6937 -59.5134 1.01983 26.8021 -0.242984 -1.56419 0.057733 -0.191398 2.24813 -3.34627 -16.506 0.0 0.0 0.0 5.00829 6.88263 3.20577 -14.8212 0.321369 2.24545 21.4935 -5.59103 -2.9855 -10.4414 0.0 0.0 -0.0 0.0 -0.0 -4.60269 6.82709 -0.552015 3.53409 0.161584 0.5181 -19.641 -29.2308 -3.15247 -38.2019 0.0 0.0 0.0 0.0 0.0 
3441.36 755.888 -532.138 -10.5024 78.7052 8.62487 -1.82858 0.132437 1.286 -1.82766 0.0503436 1.29182 -1.82565 -0.26279 1.26582 -1.82788 -0.0595972 1.29143 -1.91751 4.70389 1.60591 -1.88917 7.21654 2.30268 -0.0 0.0 -0.0 7.96362 -26.532 14.2892 -9.24724 13.1509 65.1513 0.98429 -25.9928 0.227182 15.5777 0.283487 -1.9636 2.40855 -8.20027 12.8859 -0.0 0.0 -0.0 8.30687 -8.22458 -15.8563 -9.86611 17.9009 -60.0546 1.01394 26.6686 -0.240332 -0.700335 0.0252018 -0.0858864 2.00206 -1.68599 -14.1682 0.0 0.0 0.0 4.01547 7.29229 3.73279 -14.4907 0.320573 2.19475 23.177 -4.5209 -3.17857 -11.621 0.0 0.0 -0.0 0.0 -0.0 -4.1158 5.04744 -0.155379 0.242583 0.010065 0.0358656 -18.638 -28.9371 -2.98438 -35.9096 0.0 0.0 0.0 0.0 0.0 
